<svg xmlns="http://www.w3.org/2000/svg" xmlns:xlink="http://www.w3.org/1999/xlink" width="800" zoomAndPan="magnify" viewBox="0 0 600 599.999999" height="800" preserveAspectRatio="xMidYMid meet" version="1.2"><g id="27ad14ba5a"><path style=" stroke:none;fill-rule:nonzero;fill:#0d0d0e;fill-opacity:1;" d="M 600 300 C 600 266.253906 576.753906 233.546875 534.539062 207.585938 C 549.839844 160.972656 550.019531 122.042969 535.082031 94.503906 C 538.734375 89.695312 540.808594 83.925781 540.808594 77.804688 C 540.808594 62.441406 528.332031 49.949219 513 49.949219 C 505.058594 49.949219 497.550781 53.363281 492.28125 59.210938 C 466.023438 50.425781 431.660156 52.566406 392.410156 65.449219 C 366.441406 23.242188 333.746094 0 300 0 C 266.246094 0 233.542969 23.253906 207.582031 65.472656 C 150.277344 46.636719 104.152344 50.828125 77.480469 77.496094 C 66.695312 88.324219 59.578125 102.34375 56.179688 119.148438 C 40.894531 119.203125 28.476562 131.675781 28.476562 147 C 28.476562 162.332031 40.953125 174.808594 56.285156 174.808594 C 56.523438 174.808594 56.738281 174.78125 56.972656 174.777344 C 58.894531 185.265625 61.722656 196.253906 65.429688 207.582031 C 23.234375 233.558594 0 266.261719 0 300 C 0 333.753906 23.253906 366.453125 65.472656 392.414062 C 46.636719 449.71875 50.828125 495.84375 77.492188 522.503906 C 93.210938 538.230469 115.679688 546.15625 143.230469 546.15625 C 162.40625 546.15625 184.066406 542.261719 207.585938 534.535156 C 233.550781 576.753906 266.253906 600 300 600 C 333.753906 600 366.457031 576.746094 392.410156 534.539062 C 415.9375 542.265625 437.589844 546.160156 456.765625 546.160156 C 484.308594 546.160156 506.785156 538.234375 522.503906 522.507812 C 549.167969 495.847656 553.355469 449.71875 534.523438 392.417969 C 576.753906 366.453125 600 333.753906 600 300 Z M 414.632812 461.65625 C 412.125 460.9375 409.523438 460.523438 406.90625 460.523438 C 391.542969 460.523438 379.046875 473 379.046875 488.332031 C 379.046875 498.6875 384.933594 508.070312 393.765625 512.8125 C 391.886719 516.460938 390.046875 519.84375 388.21875 523.035156 C 362.78125 514.003906 336.089844 500.757812 308.730469 483.582031 C 326.257812 471.851562 343.652344 458.863281 360.546875 444.765625 C 381.976562 442.59375 402.65625 439.285156 422.269531 434.992188 C 419.972656 444.132812 417.414062 453.050781 414.632812 461.65625 Z M 211.839844 523.003906 C 197.921875 498.730469 186.246094 468.535156 177.777344 434.996094 C 197.375 439.285156 218.042969 442.589844 239.453125 444.761719 C 256.34375 458.851562 273.738281 471.84375 291.269531 483.578125 C 263.929688 500.742188 237.261719 513.980469 211.839844 523.003906 Z M 211.839844 76.992188 C 237.351562 86.046875 264.035156 99.300781 291.308594 116.457031 C 274.027344 127.972656 256.632812 140.941406 239.457031 155.238281 C 218.058594 157.398438 197.386719 160.710938 177.777344 165.003906 C 186.246094 131.472656 197.921875 101.28125 211.839844 76.992188 Z M 388.160156 76.992188 C 402.074219 101.277344 413.753906 131.472656 422.222656 165.003906 C 402.613281 160.710938 381.949219 157.398438 360.546875 155.238281 C 343.496094 141.007812 326.113281 128.035156 308.777344 116.460938 C 336.101562 99.269531 362.753906 86.015625 388.160156 76.992188 Z M 373.429688 433.703125 C 384 424.375 394.414062 414.605469 404.507812 404.515625 C 414.660156 394.363281 424.421875 383.941406 433.679688 373.429688 C 431.476562 391.160156 428.472656 408.332031 424.710938 424.710938 C 408.367188 428.457031 391.195312 431.472656 373.429688 433.703125 Z M 175.289062 424.710938 C 171.496094 408.167969 168.476562 390.964844 166.277344 373.347656 C 175.628906 383.980469 185.40625 394.417969 195.492188 404.507812 C 205.585938 414.601562 216 424.371094 226.570312 433.699219 C 208.808594 431.472656 191.636719 428.457031 175.289062 424.710938 Z M 226.585938 166.296875 C 216.160156 175.5 205.742188 185.265625 195.484375 195.492188 C 185.394531 205.582031 175.628906 215.996094 166.296875 226.578125 C 168.523438 208.824219 171.539062 191.648438 175.289062 175.289062 C 191.652344 171.539062 208.828125 168.523438 226.585938 166.296875 Z M 243.320312 435.578125 C 229.308594 423.742188 215.492188 411.039062 202.222656 397.777344 C 188.996094 384.542969 176.296875 370.6875 164.421875 356.585938 C 162.667969 338.230469 161.761719 319.203125 161.761719 300 C 161.761719 280.78125 162.667969 261.722656 164.421875 243.320312 C 176.269531 229.304688 188.972656 215.480469 202.21875 202.234375 C 215.757812 188.738281 229.585938 176.035156 243.320312 164.429688 C 261.730469 162.667969 280.78125 161.761719 300 161.761719 C 319.21875 161.761719 338.277344 162.667969 356.679688 164.421875 C 370.695312 176.269531 384.519531 188.972656 397.777344 202.222656 C 411.035156 215.484375 423.734375 229.308594 435.578125 243.324219 C 437.332031 261.730469 438.238281 280.78125 438.238281 300 C 438.238281 319.367188 437.320312 338.410156 435.535156 356.675781 C 423.824219 370.585938 411.144531 384.410156 397.777344 397.777344 C 384.507812 411.042969 370.679688 423.742188 356.675781 435.578125 C 319.8125 439.082031 280.179688 439.082031 243.320312 435.578125 Z M 153.78125 343.601562 C 142.222656 329.152344 131.605469 314.535156 122.066406 299.957031 C 131.628906 285.386719 142.253906 270.777344 153.78125 256.328125 C 152.761719 270.65625 152.238281 285.28125 152.238281 300 C 152.238281 314.703125 152.761719 329.308594 153.78125 343.601562 Z M 446.21875 256.332031 C 457.660156 270.675781 468.296875 285.300781 477.972656 299.996094 C 468.257812 314.746094 457.617188 329.371094 446.195312 343.65625 C 447.222656 329.417969 447.757812 314.796875 447.757812 299.996094 C 447.761719 285.285156 447.238281 270.660156 446.21875 256.332031 Z M 404.507812 195.492188 C 394.417969 185.398438 384.003906 175.632812 373.421875 166.300781 C 391.175781 168.527344 408.351562 171.542969 424.710938 175.296875 C 428.460938 191.652344 431.472656 208.824219 433.703125 226.582031 C 424.371094 215.996094 414.601562 205.582031 404.507812 195.492188 Z M 343.675781 153.785156 C 314.984375 151.757812 285.050781 151.757812 256.355469 153.785156 C 270.886719 142.210938 285.519531 131.585938 300.042969 122.070312 C 314.613281 131.628906 329.230469 142.253906 343.675781 153.785156 Z M 155.238281 239.453125 C 141.007812 256.507812 128.027344 273.886719 116.457031 291.234375 C 99.363281 264.109375 86.09375 237.453125 76.953125 211.84375 C 101.304688 197.910156 131.515625 186.230469 165.007812 177.78125 C 160.710938 197.386719 157.398438 218.050781 155.238281 239.453125 Z M 116.457031 308.695312 C 128 326.035156 140.972656 343.40625 155.238281 360.453125 C 157.34375 381.660156 160.652344 402.367188 165.007812 422.222656 C 131.484375 413.757812 101.289062 402.082031 76.996094 388.15625 C 86.046875 362.648438 99.300781 335.964844 116.457031 308.695312 Z M 256.332031 446.21875 C 270.671875 447.238281 285.296875 447.761719 300 447.761719 C 314.703125 447.761719 329.328125 447.238281 343.667969 446.21875 C 329.328125 457.65625 314.703125 468.289062 300 477.976562 C 285.289062 468.289062 270.667969 457.652344 256.332031 446.21875 Z M 444.71875 360.542969 C 458.796875 343.722656 471.800781 326.324219 483.574219 308.730469 C 500.738281 336.070312 513.976562 362.734375 523.007812 388.160156 C 498.71875 402.082031 468.523438 413.761719 434.996094 422.222656 C 439.304688 402.578125 442.601562 381.910156 444.71875 360.542969 Z M 483.578125 291.269531 C 471.851562 273.753906 458.855469 256.355469 444.761719 239.457031 C 442.601562 218.058594 439.289062 197.390625 434.996094 177.777344 C 468.527344 186.242188 498.722656 197.917969 523.007812 211.839844 C 513.984375 237.261719 500.738281 263.933594 483.578125 291.269531 Z M 487.179688 67.546875 C 485.886719 70.800781 485.144531 74.257812 485.144531 77.808594 C 485.144531 93.144531 497.644531 105.617188 513 105.617188 C 518.367188 105.617188 523.484375 104.082031 527.90625 101.253906 C 539.960938 125.730469 539.328125 161.3125 526.117188 202.660156 C 500.222656 188.078125 468.128906 175.933594 432.632812 167.363281 C 424.058594 131.855469 411.910156 99.757812 397.324219 73.863281 C 432.734375 62.523438 463.570312 60.34375 487.179688 67.546875 Z M 300 9.523438 C 329.851562 9.523438 359.230469 30.5 383.195312 68.660156 C 356.523438 78.3125 328.601562 92.417969 300.042969 110.710938 C 271.539062 92.453125 243.582031 78.347656 216.804688 68.660156 C 240.765625 30.503906 270.148438 9.523438 300 9.523438 Z M 84.222656 84.222656 C 107.929688 60.527344 149.867188 56.953125 202.660156 73.890625 C 188.082031 99.785156 175.9375 131.871094 167.367188 167.367188 C 131.917969 175.921875 99.8125 188.0625 73.851562 202.660156 C 70.578125 192.386719 68.050781 182.429688 66.3125 172.921875 C 76.847656 168.871094 84.101562 158.625 84.101562 147.003906 C 84.101562 134.941406 76.542969 124.582031 65.566406 120.757812 C 68.605469 105.933594 74.847656 93.636719 84.222656 84.222656 Z M 9.523438 300 C 9.523438 270.15625 30.492188 240.769531 68.625 216.800781 C 78.394531 243.6875 92.519531 271.613281 110.703125 299.957031 C 92.453125 328.460938 78.34375 356.417969 68.660156 383.191406 C 30.503906 359.234375 9.523438 329.855469 9.523438 300 Z M 84.222656 515.777344 C 60.523438 492.078125 56.953125 450.136719 73.886719 397.339844 C 99.785156 411.929688 131.875 424.066406 167.363281 432.636719 C 175.9375 468.132812 188.078125 500.222656 202.65625 526.109375 C 149.867188 543.046875 107.921875 539.472656 84.222656 515.777344 Z M 300 590.476562 C 270.148438 590.476562 240.765625 569.5 216.804688 531.339844 C 243.480469 521.691406 271.414062 507.605469 300 489.339844 C 328.585938 507.601562 356.523438 521.6875 383.195312 531.339844 C 359.234375 569.5 329.855469 590.476562 300 590.476562 Z M 515.777344 515.777344 C 492.085938 539.464844 450.179688 543.042969 397.410156 526.136719 C 399.210938 522.9375 401.027344 519.535156 402.882812 515.894531 C 404.199219 516.089844 405.542969 516.195312 406.90625 516.195312 C 422.238281 516.195312 434.714844 503.695312 434.714844 488.332031 C 434.714844 479.339844 430.414062 471.046875 423.285156 465.855469 C 426.765625 455.199219 429.910156 444.0625 432.652344 432.636719 C 468.136719 424.0625 500.21875 411.929688 526.109375 397.34375 C 543.046875 450.132812 539.476562 492.078125 515.777344 515.777344 Z M 531.339844 383.195312 C 521.6875 356.519531 507.59375 328.585938 489.339844 300 C 507.59375 271.417969 521.6875 243.480469 531.339844 216.804688 C 569.5 240.765625 590.476562 270.148438 590.476562 300 C 590.476562 329.851562 569.5 359.230469 531.339844 383.195312 Z M 531.339844 383.195312 "/><path style=" stroke:none;fill-rule:nonzero;fill:#0d0d0e;fill-opacity:1;" d="M 364.714844 286.144531 C 364.714844 250.457031 335.6875 221.429688 300 221.429688 C 264.3125 221.429688 235.285156 250.457031 235.285156 286.144531 C 235.285156 321.851562 264.3125 350.910156 300 350.910156 C 335.6875 350.910156 364.714844 321.851562 364.714844 286.144531 Z M 364.714844 286.144531 "/></g></svg>